<svg id="Layer_1" data-name="Layer 1" xmlns="http://www.w3.org/2000/svg" viewBox="0 0 110 74"><defs><style>.cls-1{fill:none;stroke:#333232;stroke-linecap:round;stroke-linejoin:round;stroke-width:2px;}</style></defs><path class="cls-1" d="M47.49,71.89V57c0-.34.19-.61.42-.61h0c.45,0,.81-.56.78-1.23-.11-2.79.3-9.63,6.41-13.38,0,0,6.42,1.53,6.93,13.46,0,.56.34,1,.73,1h0c.18,0,.32.21.32.48V72.09"/><polyline class="cls-1" points="3.4 72.09 7.65 72.09 107.75 72.09"/><path class="cls-1" d="M102.46,72.09V30.33A2.27,2.27,0,0,0,100.3,28H10a2.28,2.28,0,0,0-2.16,2.37l0,13.51L7.68,72.09"/><line class="cls-1" x1="5.32" y1="38.74" x2="104.88" y2="38.74"/><line class="cls-1" x1="5.32" y1="32.32" x2="31.62" y2="32.32"/><line class="cls-1" x1="78.6" y1="32.32" x2="104.88" y2="32.32"/><line class="cls-1" x1="31.62" y1="27.96" x2="31.62" y2="72.09"/><line class="cls-1" x1="78.6" y1="27.96" x2="78.6" y2="72.09"/><line class="cls-1" x1="42.39" y1="27.96" x2="42.39" y2="72.09"/><line class="cls-1" x1="68.68" y1="27.96" x2="68.68" y2="72.09"/><line class="cls-1" x1="45.89" y1="27.96" x2="45.89" y2="33.55"/><line class="cls-1" x1="50.65" y1="27.96" x2="50.65" y2="33.55"/><line class="cls-1" x1="55.29" y1="27.96" x2="55.29" y2="33.55"/><line class="cls-1" x1="60.21" y1="27.96" x2="60.21" y2="33.55"/><line class="cls-1" x1="64.69" y1="27.96" x2="64.69" y2="33.55"/><polyline class="cls-1" points="70.23 27.79 70.23 22.61 70.23 18.68 77.05 18.68 77.05 20.73 77.05 27.79"/><polyline class="cls-1" points="70.07 18.5 70.59 18.5 77.26 18.5"/><path class="cls-1" d="M70.72,18.5l-.12-7.1h-.71a.69.69,0,0,1-.7-.71s-.11-.72,1-.68a.56.56,0,0,0,.53-.52c.06-.8.53-2.59,2.94-5.73,0,0,2.62,3.11,2.94,5.74,0,.21.16.54.35.54h.46a.6.6,0,0,1,.71.51.66.66,0,0,1-.69.84h-.8V18.5"/><polyline class="cls-1" points="33.71 28 33.71 22.82 33.71 18.89 40.53 18.89 40.53 20.93 40.53 28"/><polyline class="cls-1" points="33.34 18.68 33.89 18.68 40.84 18.68"/><path class="cls-1" d="M34.21,18.68l-.13-7.09h-.71a.7.7,0,0,1-.69-.72s-.11-.72,1-.68a.53.53,0,0,0,.52-.52c.07-.8.54-2.59,2.94-5.73,0,0,2.63,3.11,3,5.74,0,.21.16.54.35.54h.45a.61.61,0,0,1,.72.51.66.66,0,0,1-.7.84H40.1v7.11"/><line class="cls-1" x1="102.46" y1="43.9" x2="78.6" y2="43.9"/><line class="cls-1" x1="82.33" y1="38.81" x2="82.33" y2="43.9"/><line class="cls-1" x1="86.41" y1="38.81" x2="86.41" y2="43.9"/><line class="cls-1" x1="90.39" y1="38.81" x2="90.39" y2="43.9"/><line class="cls-1" x1="94.42" y1="38.67" x2="94.42" y2="43.77"/><line class="cls-1" x1="98.59" y1="38.67" x2="98.59" y2="43.77"/><line class="cls-1" x1="31.54" y1="43.8" x2="7.68" y2="43.8"/><line class="cls-1" x1="11.53" y1="38.7" x2="11.53" y2="43.8"/><line class="cls-1" x1="15.62" y1="38.7" x2="15.62" y2="43.8"/><line class="cls-1" x1="19.59" y1="38.7" x2="19.59" y2="43.8"/><line class="cls-1" x1="23.62" y1="38.57" x2="23.62" y2="43.67"/><line class="cls-1" x1="27.8" y1="38.57" x2="27.8" y2="43.67"/><polyline class="cls-1" points="13.5 72.09 13.5 55.53 26.27 55.53 26.27 72.09"/><polyline class="cls-1" points="84.14 72.09 84.14 55.53 96.91 55.53 96.91 72.09"/><path class="cls-1" d="M84.14,55.53s-.27-7.15,6.39-7.15c0,0,6.38-.4,6.38,7.15"/><line class="cls-1" x1="88.87" y1="48.74" x2="88.87" y2="55.53"/><line class="cls-1" x1="92.2" y1="48.56" x2="92.2" y2="55.35"/><line class="cls-1" x1="85.47" y1="50.8" x2="85.47" y2="55.53"/><line class="cls-1" x1="95.66" y1="50.8" x2="95.66" y2="55.53"/><path class="cls-1" d="M13.5,55.53s-.27-7.15,6.39-7.15c0,0,6.38-.4,6.38,7.15"/><line class="cls-1" x1="18.23" y1="48.74" x2="18.23" y2="55.53"/><line class="cls-1" x1="21.56" y1="48.56" x2="21.56" y2="55.35"/><line class="cls-1" x1="14.83" y1="50.8" x2="14.83" y2="55.53"/><line class="cls-1" x1="25.02" y1="50.8" x2="25.02" y2="55.53"/><path class="cls-1" d="M16.46,72.09v-10s0-4,3.59-3.73c0,0,3.26-.23,3.26,3.73v10"/><path class="cls-1" d="M87.15,72.09v-10s0-4,3.56-3.73c0,0,3.24-.23,3.24,3.73v10"/><line class="cls-1" x1="73.64" y1="42.13" x2="73.69" y2="68.93"/><line class="cls-1" x1="36.98" y1="41.94" x2="37.03" y2="68.75"/><line class="cls-1" x1="37.38" y1="12.44" x2="37.38" y2="16.08"/><line class="cls-1" x1="73.45" y1="12.44" x2="73.45" y2="16.08"/></svg>